<svg width="600" height="600" viewBox="0 0 600 600" fill="none" xmlns="http://www.w3.org/2000/svg">
<rect x="1.5" y="1.5" width="597" height="597" rx="298.5" fill="#3D405B"/>
<rect x="1.5" y="1.5" width="597" height="597" rx="298.5" stroke="#F4F1DE" stroke-width="3"/>
<mask id="path-2-outside-1_19_15" maskUnits="userSpaceOnUse" x="103.75" y="53" width="296" height="369" fill="black">
<rect fill="white" x="103.75" y="53" width="296" height="369"/>
<path d="M377.91 91.08C383.35 93.96 386.39 98.28 387.03 104.04C387.99 109.8 386.55 115.08 382.71 119.88C379.83 124.04 376.15 126.28 371.67 126.6C367.19 126.92 362.71 125.96 358.23 123.72C347.67 117.32 336.31 112.36 324.15 108.84C311.99 105 299.19 103.08 285.75 103.08C266.87 103.08 249.59 106.44 233.91 113.16C218.23 119.56 204.63 128.68 193.11 140.52C181.59 152.36 172.63 166.44 166.23 182.76C159.83 199.08 156.63 217.16 156.63 237C156.63 258.12 159.99 277 166.71 293.64C173.43 310.28 182.55 324.52 194.07 336.36C205.91 347.88 219.51 356.68 234.87 362.76C250.55 368.84 267.51 371.88 285.75 371.88C298.87 371.88 311.51 370.12 323.67 366.6C335.83 363.08 347.35 357.96 358.23 351.24C362.71 349 367.19 348.2 371.67 348.84C376.15 349.48 379.99 351.72 383.19 355.56C387.03 360.68 388.47 366.12 387.51 371.88C386.55 377.32 383.51 381.32 378.39 383.88C370.39 388.68 361.27 393.16 351.03 397.32C340.79 401.16 330.07 404.2 318.87 406.44C307.99 408.68 296.95 409.8 285.75 409.8C262.71 409.8 240.95 405.8 220.47 397.8C199.99 389.8 181.91 378.28 166.23 363.24C150.55 348.2 138.07 330.12 128.79 309C119.83 287.56 115.35 263.56 115.35 237C115.35 212.04 119.67 189.16 128.31 168.36C136.95 147.56 148.95 129.48 164.31 114.12C179.99 98.76 198.07 86.76 218.55 78.12C239.35 69.48 261.75 65.16 285.75 65.16C302.39 65.16 318.55 67.4 334.23 71.88C350.23 76.36 364.79 82.76 377.91 91.08Z"/>
</mask>
<path d="M377.91 91.08C383.35 93.96 386.39 98.28 387.03 104.04C387.99 109.8 386.55 115.08 382.71 119.88C379.83 124.04 376.15 126.28 371.67 126.6C367.19 126.92 362.71 125.96 358.23 123.72C347.67 117.32 336.31 112.36 324.15 108.84C311.99 105 299.19 103.08 285.75 103.08C266.87 103.08 249.59 106.44 233.91 113.16C218.23 119.56 204.63 128.68 193.11 140.52C181.59 152.36 172.63 166.44 166.23 182.76C159.83 199.08 156.63 217.16 156.63 237C156.63 258.12 159.99 277 166.71 293.64C173.43 310.28 182.55 324.52 194.07 336.36C205.91 347.88 219.51 356.68 234.87 362.76C250.55 368.84 267.51 371.88 285.75 371.88C298.87 371.88 311.51 370.12 323.67 366.6C335.83 363.08 347.35 357.96 358.23 351.24C362.71 349 367.19 348.2 371.67 348.84C376.15 349.48 379.99 351.72 383.19 355.56C387.03 360.68 388.47 366.12 387.51 371.88C386.55 377.32 383.51 381.32 378.39 383.88C370.39 388.68 361.27 393.16 351.03 397.32C340.79 401.16 330.07 404.2 318.87 406.44C307.99 408.68 296.95 409.8 285.75 409.8C262.71 409.8 240.95 405.8 220.47 397.8C199.99 389.8 181.91 378.28 166.23 363.24C150.55 348.2 138.07 330.12 128.79 309C119.83 287.56 115.35 263.56 115.35 237C115.35 212.04 119.67 189.16 128.31 168.36C136.95 147.56 148.95 129.48 164.31 114.12C179.99 98.76 198.07 86.76 218.55 78.12C239.35 69.48 261.75 65.16 285.75 65.16C302.39 65.16 318.55 67.4 334.23 71.88C350.23 76.36 364.79 82.76 377.91 91.08Z" fill="#F2CC8F"/>
<path d="M377.91 91.08L371.885 100.581L372.257 100.817L372.646 101.023L377.91 91.08ZM387.03 104.04L375.849 105.282L375.883 105.587L375.933 105.889L387.03 104.04ZM382.71 119.88L373.925 112.852L373.682 113.156L373.46 113.476L382.71 119.88ZM371.67 126.6L372.472 137.821L372.472 137.821L371.67 126.6ZM358.23 123.72L352.399 133.341L352.79 133.578L353.199 133.782L358.23 123.72ZM324.15 108.84L320.762 119.568L320.892 119.609L321.022 119.646L324.15 108.84ZM233.91 113.16L238.161 123.576L238.252 123.539L238.342 123.5L233.91 113.16ZM193.11 140.52L201.173 148.365L201.173 148.365L193.11 140.52ZM166.23 182.76L155.757 178.653L155.757 178.653L166.23 182.76ZM194.07 336.36L186.007 344.205L186.114 344.316L186.225 344.423L194.07 336.36ZM234.87 362.76L230.729 373.22L230.766 373.235L230.803 373.249L234.87 362.76ZM323.67 366.6L326.798 377.406L326.798 377.406L323.67 366.6ZM358.23 351.24L353.199 341.178L352.748 341.403L352.318 341.669L358.23 351.24ZM371.67 348.84L373.261 337.703L373.261 337.703L371.67 348.84ZM383.19 355.56L392.19 348.81L392.017 348.579L391.833 348.358L383.19 355.56ZM387.51 371.88L398.589 373.835L398.598 373.782L398.607 373.729L387.51 371.88ZM378.39 383.88L373.359 373.818L372.972 374.011L372.602 374.233L378.39 383.88ZM351.03 397.32L354.98 407.854L355.123 407.8L355.264 407.743L351.03 397.32ZM318.87 406.44L316.664 395.408L316.633 395.415L316.601 395.421L318.87 406.44ZM220.47 397.8L216.377 408.279L216.377 408.279L220.47 397.8ZM166.23 363.24L174.018 355.121L174.018 355.121L166.23 363.24ZM128.79 309L118.41 313.338L118.449 313.432L118.49 313.526L128.79 309ZM164.31 114.12L156.437 106.083L156.396 106.124L156.355 106.165L164.31 114.12ZM218.55 78.12L214.234 67.7306L214.206 67.7426L214.177 67.7546L218.55 78.12ZM334.23 71.88L331.139 82.6971L331.168 82.7053L331.197 82.7133L334.23 71.88ZM372.646 101.023C375.038 102.289 375.649 103.488 375.849 105.282L398.211 102.798C397.131 93.0724 391.662 85.6311 383.174 81.1374L372.646 101.023ZM375.933 105.889C376.337 108.313 375.887 110.4 373.925 112.852L391.495 126.908C397.213 119.76 399.643 111.287 398.127 102.19L375.933 105.889ZM373.46 113.476C372.243 115.235 371.489 115.334 370.869 115.379L372.472 137.821C380.811 137.226 387.417 132.845 391.96 126.284L373.46 113.476ZM370.869 115.379C368.627 115.539 366.149 115.102 363.261 113.658L353.199 133.782C359.271 136.818 365.753 138.301 372.472 137.821L370.869 115.379ZM364.061 114.099C352.635 107.174 340.363 101.821 327.278 98.0336L321.022 119.646C332.257 122.899 342.705 127.466 352.399 133.341L364.061 114.099ZM327.538 98.1122C314.224 93.9078 300.277 91.83 285.75 91.83V114.33C298.103 114.33 309.756 116.092 320.762 119.568L327.538 98.1122ZM285.75 91.83C265.51 91.83 246.701 95.4383 229.478 102.82L238.342 123.5C252.479 117.442 268.23 114.33 285.75 114.33V91.83ZM229.659 102.744C212.582 109.714 197.675 119.696 185.047 132.675L201.173 148.365C211.585 137.664 223.878 129.406 238.161 123.576L229.659 102.744ZM185.047 132.675C172.42 145.653 162.669 161.025 155.757 178.653L176.703 186.867C182.591 171.855 190.76 159.067 201.173 148.365L185.047 132.675ZM155.757 178.653C148.78 196.442 145.38 215.938 145.38 237H167.88C167.88 218.382 170.88 201.718 176.703 186.867L155.757 178.653ZM145.38 237C145.38 259.313 148.931 279.659 156.279 297.853L177.141 289.427C171.049 274.341 167.88 256.927 167.88 237H145.38ZM156.279 297.853C163.497 315.728 173.384 331.232 186.007 344.205L202.133 328.515C191.716 317.808 183.363 304.832 177.141 289.427L156.279 297.853ZM186.225 344.423C199.129 356.979 213.988 366.594 230.729 373.22L239.011 352.3C225.032 346.766 212.691 338.781 201.915 328.297L186.225 344.423ZM230.803 373.249C247.886 379.873 266.237 383.13 285.75 383.13V360.63C268.783 360.63 253.214 357.807 238.937 352.271L230.803 373.249ZM285.75 383.13C299.89 383.13 313.585 381.231 326.798 377.406L320.542 355.794C309.435 359.009 297.85 360.63 285.75 360.63V383.13ZM326.798 377.406C339.948 373.6 352.403 368.062 364.142 360.811L352.318 341.669C342.297 347.858 331.712 352.56 320.542 355.794L326.798 377.406ZM363.261 361.302C365.923 359.972 368.104 359.695 370.079 359.977L373.261 337.703C366.276 336.705 359.497 338.028 353.199 341.178L363.261 361.302ZM370.079 359.977C371.506 360.181 372.929 360.82 374.548 362.762L391.833 348.358C387.051 342.62 380.794 338.779 373.261 337.703L370.079 359.977ZM374.19 362.31C376.382 365.232 376.816 367.611 376.413 370.031L398.607 373.729C400.124 364.629 397.678 356.128 392.19 348.81L374.19 362.31ZM376.431 369.925C376.116 371.711 375.429 372.783 373.359 373.818L383.421 393.942C391.591 389.857 396.984 382.929 398.589 373.835L376.431 369.925ZM372.602 374.233C365.18 378.686 356.594 382.917 346.796 386.897L355.264 407.743C365.946 403.403 375.6 398.674 384.178 393.527L372.602 374.233ZM347.08 386.786C337.431 390.405 327.296 393.282 316.664 395.408L321.076 417.472C332.844 415.118 344.149 411.915 354.98 407.854L347.08 386.786ZM316.601 395.421C306.474 397.506 296.194 398.55 285.75 398.55V421.05C297.706 421.05 309.506 419.854 321.139 417.459L316.601 395.421ZM285.75 398.55C264.043 398.55 243.677 394.787 224.563 387.321L216.377 408.279C238.223 416.813 261.377 421.05 285.75 421.05V398.55ZM224.563 387.321C205.441 379.851 188.62 369.127 174.018 355.121L158.442 371.359C175.2 387.433 194.539 399.749 216.377 408.279L224.563 387.321ZM174.018 355.121C159.467 341.165 147.813 324.328 139.09 304.474L118.49 313.526C128.327 335.912 141.633 355.235 158.442 371.359L174.018 355.121ZM139.17 304.662C130.861 284.779 126.6 262.282 126.6 237H104.1C104.1 264.838 108.799 290.341 118.41 313.338L139.17 304.662ZM126.6 237C126.6 213.361 130.686 191.967 138.699 172.676L117.921 164.044C108.654 186.353 104.1 210.719 104.1 237H126.6ZM138.699 172.676C146.795 153.185 157.985 136.354 172.265 122.075L156.355 106.165C139.915 122.605 127.105 141.935 117.921 164.044L138.699 172.676ZM172.183 122.157C186.84 107.799 203.728 96.583 222.923 88.4853L214.177 67.7546C192.412 76.937 173.14 89.7214 156.437 106.083L172.183 122.157ZM222.866 88.5093C242.21 80.4741 263.133 76.41 285.75 76.41V53.91C260.367 53.91 236.49 58.4859 214.234 67.7306L222.866 88.5093ZM285.75 76.41C301.366 76.41 316.485 78.5102 331.139 82.6971L337.321 61.0629C320.615 56.2898 303.414 53.91 285.75 53.91V76.41ZM331.197 82.7133C346.213 86.918 359.754 92.8879 371.885 100.581L383.935 81.5793C369.826 72.6321 354.247 65.802 337.263 61.0467L331.197 82.7133Z" fill="#3D405B" mask="url(#path-2-outside-1_19_15)"/>
<mask id="path-4-outside-2_19_15" maskUnits="userSpaceOnUse" x="183.75" y="177" width="290" height="360" fill="black">
<rect fill="white" x="183.75" y="177" width="290" height="360"/>
<path d="M444.63 189C450.07 189 454.39 190.76 457.59 194.28C460.79 197.48 462.39 201.64 462.39 206.76V504.84C462.39 510.92 460.47 515.88 456.63 519.72C452.79 523.24 448.15 525 442.71 525C439.83 525 436.95 524.52 434.07 523.56C431.19 522.28 428.95 520.68 427.35 518.76L221.91 247.08L231.51 241.32V507.24C231.51 512.36 229.75 516.68 226.23 520.2C223.03 523.4 218.71 525 213.27 525C208.15 525 203.99 523.4 200.79 520.2C197.59 516.68 195.99 512.36 195.99 507.24V208.2C195.99 202.44 197.75 197.8 201.27 194.28C205.11 190.76 209.59 189 214.71 189C217.59 189 220.47 189.64 223.35 190.92C226.55 191.88 228.95 193.48 230.55 195.72L433.11 463.56L426.87 471.24V206.76C426.87 201.64 428.47 197.48 431.67 194.28C435.19 190.76 439.51 189 444.63 189Z"/>
</mask>
<path d="M444.63 189C450.07 189 454.39 190.76 457.59 194.28C460.79 197.48 462.39 201.64 462.39 206.76V504.84C462.39 510.92 460.47 515.88 456.63 519.72C452.79 523.24 448.15 525 442.71 525C439.83 525 436.95 524.52 434.07 523.56C431.19 522.28 428.95 520.68 427.35 518.76L221.91 247.08L231.51 241.32V507.24C231.51 512.36 229.75 516.68 226.23 520.2C223.03 523.4 218.71 525 213.27 525C208.15 525 203.99 523.4 200.79 520.2C197.59 516.68 195.99 512.36 195.99 507.24V208.2C195.99 202.44 197.75 197.8 201.27 194.28C205.11 190.76 209.59 189 214.71 189C217.59 189 220.47 189.64 223.35 190.92C226.55 191.88 228.95 193.48 230.55 195.72L433.11 463.56L426.87 471.24V206.76C426.87 201.64 428.47 197.48 431.67 194.28C435.19 190.76 439.51 189 444.63 189Z" fill="#E07A5F"/>
<path d="M457.59 194.28L449.266 201.848L449.446 202.046L449.635 202.235L457.59 194.28ZM456.63 519.72L464.232 528.013L464.412 527.848L464.585 527.675L456.63 519.72ZM434.07 523.56L429.501 533.84L429.997 534.061L430.512 534.233L434.07 523.56ZM427.35 518.76L418.377 525.545L418.537 525.758L418.708 525.962L427.35 518.76ZM221.91 247.08L216.122 237.433L205.383 243.876L212.937 253.865L221.91 247.08ZM231.51 241.32H242.76V221.45L225.722 231.673L231.51 241.32ZM226.23 520.2L234.185 528.155L234.185 528.155L226.23 520.2ZM200.79 520.2L192.466 527.768L192.646 527.966L192.835 528.155L200.79 520.2ZM201.27 194.28L193.668 185.987L193.488 186.152L193.315 186.325L201.27 194.28ZM223.35 190.92L218.781 201.2L219.433 201.49L220.117 201.696L223.35 190.92ZM230.55 195.72L221.396 202.259L221.485 202.384L221.577 202.506L230.55 195.72ZM433.11 463.56L441.841 470.654L447.403 463.809L442.083 456.774L433.11 463.56ZM426.87 471.24H415.62V502.926L435.601 478.334L426.87 471.24ZM431.67 194.28L439.625 202.235L439.625 202.235L431.67 194.28ZM444.63 200.25C447.402 200.25 448.514 201.02 449.266 201.848L465.914 186.712C460.266 180.5 452.738 177.75 444.63 177.75V200.25ZM449.635 202.235C450.441 203.041 451.14 204.197 451.14 206.76H473.64C473.64 199.083 471.139 191.919 465.545 186.325L449.635 202.235ZM451.14 206.76V504.84H473.64V206.76H451.14ZM451.14 504.84C451.14 508.326 450.145 510.296 448.675 511.765L464.585 527.675C470.795 521.464 473.64 513.514 473.64 504.84H451.14ZM449.028 511.427C447.362 512.954 445.472 513.75 442.71 513.75V536.25C450.828 536.25 458.218 533.526 464.232 528.013L449.028 511.427ZM442.71 513.75C441.103 513.75 439.423 513.486 437.628 512.887L430.512 534.233C434.477 535.554 438.557 536.25 442.71 536.25V513.75ZM438.639 513.28C436.935 512.522 436.239 511.853 435.993 511.558L418.708 525.962C421.661 529.507 425.445 532.038 429.501 533.84L438.639 513.28ZM436.323 511.975L230.883 240.295L212.937 253.865L418.377 525.545L436.323 511.975ZM227.698 256.727L237.298 250.967L225.722 231.673L216.122 237.433L227.698 256.727ZM220.26 241.32V507.24H242.76V241.32H220.26ZM220.26 507.24C220.26 509.472 219.619 510.901 218.275 512.245L234.185 528.155C239.881 522.459 242.76 515.248 242.76 507.24H220.26ZM218.275 512.245C217.601 512.919 216.371 513.75 213.27 513.75V536.25C221.049 536.25 228.459 533.881 234.185 528.155L218.275 512.245ZM213.27 513.75C210.707 513.75 209.551 513.051 208.745 512.245L192.835 528.155C198.429 533.749 205.593 536.25 213.27 536.25V513.75ZM209.114 512.632C207.948 511.349 207.24 509.794 207.24 507.24H184.74C184.74 514.926 187.232 522.011 192.466 527.768L209.114 512.632ZM207.24 507.24V208.2H184.74V507.24H207.24ZM207.24 208.2C207.24 204.916 208.148 203.312 209.225 202.235L193.315 186.325C187.352 192.288 184.74 199.964 184.74 208.2H207.24ZM208.872 202.573C210.677 200.918 212.459 200.25 214.71 200.25V177.75C206.721 177.75 199.543 180.602 193.668 185.987L208.872 202.573ZM214.71 200.25C215.873 200.25 217.202 200.499 218.781 201.2L227.919 180.64C223.738 178.781 219.307 177.75 214.71 177.75V200.25ZM220.117 201.696C220.815 201.905 221.17 202.107 221.31 202.201C221.43 202.281 221.425 202.301 221.396 202.259L239.704 189.181C236.365 184.506 231.647 181.664 226.583 180.144L220.117 201.696ZM221.577 202.506L424.137 470.346L442.083 456.774L239.523 188.934L221.577 202.506ZM424.379 456.466L418.139 464.146L435.601 478.334L441.841 470.654L424.379 456.466ZM438.12 471.24V206.76H415.62V471.24H438.12ZM438.12 206.76C438.12 204.197 438.819 203.041 439.625 202.235L423.715 186.325C418.121 191.919 415.62 199.083 415.62 206.76H438.12ZM439.625 202.235C440.969 200.891 442.399 200.25 444.63 200.25V177.75C436.622 177.75 429.411 180.629 423.715 186.325L439.625 202.235Z" fill="#3D405B" mask="url(#path-4-outside-2_19_15)"/>
</svg>
