<svg width="600" height="600" viewBox="0 0 600 600" fill="none" xmlns="http://www.w3.org/2000/svg">
<rect x="1.49979" y="1.5" width="597" height="597" rx="298.5" fill="#3D405B"/>
<rect x="1.49979" y="1.5" width="597" height="597" rx="298.5" stroke="#F4F1DE" stroke-width="3"/>
<mask id="path-2-outside-1_19_15" maskUnits="userSpaceOnUse" x="103" y="49" width="354" height="365" fill="black">
<rect fill="white" x="103" y="49" width="354" height="365"/>
<path d="M114.76 231.48C114.76 198.84 122.28 169.56 137.32 143.64C152.68 117.72 173.32 97.56 199.24 83.16C225.48 68.44 254.12 61.08 285.16 61.08C320.68 61.08 352.2 69.88 379.72 87.48C407.56 104.76 427.72 129.4 440.2 161.4H374.44C365.8 143.8 353.8 130.68 338.44 122.04C323.08 113.4 305.32 109.08 285.16 109.08C263.08 109.08 243.4 114.04 226.12 123.96C208.84 133.88 195.24 148.12 185.32 166.68C175.72 185.24 170.92 206.84 170.92 231.48C170.92 256.12 175.72 277.72 185.32 296.28C195.24 314.84 208.84 329.24 226.12 339.48C243.4 349.4 263.08 354.36 285.16 354.36C305.32 354.36 323.08 350.04 338.44 341.4C353.8 332.76 365.8 319.64 374.44 302.04H440.2C427.72 334.04 407.56 358.68 379.72 375.96C352.2 393.24 320.68 401.88 285.16 401.88C253.8 401.88 225.16 394.68 199.24 380.28C173.32 365.56 152.68 345.24 137.32 319.32C122.28 293.4 114.76 264.12 114.76 231.48Z"/>
</mask>
<path d="M114.76 231.48C114.76 198.84 122.28 169.56 137.32 143.64C152.68 117.72 173.32 97.56 199.24 83.16C225.48 68.44 254.12 61.08 285.16 61.08C320.68 61.08 352.2 69.88 379.72 87.48C407.56 104.76 427.72 129.4 440.2 161.4H374.44C365.8 143.8 353.8 130.68 338.44 122.04C323.08 113.4 305.32 109.08 285.16 109.08C263.08 109.08 243.4 114.04 226.12 123.96C208.84 133.88 195.24 148.12 185.32 166.68C175.72 185.24 170.92 206.84 170.92 231.48C170.92 256.12 175.72 277.72 185.32 296.28C195.24 314.84 208.84 329.24 226.12 339.48C243.4 349.4 263.08 354.36 285.16 354.36C305.32 354.36 323.08 350.04 338.44 341.4C353.8 332.76 365.8 319.64 374.44 302.04H440.2C427.72 334.04 407.56 358.68 379.72 375.96C352.2 393.24 320.68 401.88 285.16 401.88C253.8 401.88 225.16 394.68 199.24 380.28C173.32 365.56 152.68 345.24 137.32 319.32C122.28 293.4 114.76 264.12 114.76 231.48Z" fill="#F2CC8F"/>
<path d="M137.32 143.64L127.642 137.905L127.615 137.949L127.589 137.994L137.32 143.64ZM199.24 83.16L204.703 92.9942L204.724 92.983L204.744 92.9716L199.24 83.16ZM379.72 87.48L373.659 96.9575L373.723 96.9984L373.787 97.0384L379.72 87.48ZM440.2 161.4V172.65H456.663L450.681 157.312L440.2 161.4ZM374.44 161.4L364.341 166.358L367.43 172.65H374.44V161.4ZM338.44 122.04L343.955 112.235L343.955 112.235L338.44 122.04ZM226.12 123.96L231.721 133.717L231.721 133.717L226.12 123.96ZM185.32 166.68L175.398 161.377L175.362 161.444L175.328 161.511L185.32 166.68ZM185.32 296.28L175.328 301.449L175.362 301.516L175.398 301.583L185.32 296.28ZM226.12 339.48L220.385 349.158L220.452 349.198L220.519 349.237L226.12 339.48ZM338.44 341.4L343.955 351.205L343.955 351.205L338.44 341.4ZM374.44 302.04V290.79H367.43L364.341 297.082L374.44 302.04ZM440.2 302.04L450.681 306.128L456.663 290.79H440.2V302.04ZM379.72 375.96L373.787 366.402L373.762 366.417L373.738 366.432L379.72 375.96ZM199.24 380.28L193.684 390.063L193.73 390.089L193.777 390.114L199.24 380.28ZM137.32 319.32L127.589 324.966L127.615 325.011L127.642 325.055L137.32 319.32ZM126.01 231.48C126.01 200.641 133.093 173.34 147.051 149.286L127.589 137.994C111.467 165.78 103.51 197.039 103.51 231.48H126.01ZM146.998 149.375C161.359 125.142 180.556 106.409 204.703 92.9942L193.777 73.3257C166.084 88.7106 144.001 110.298 127.642 137.905L146.998 149.375ZM204.744 92.9716C229.248 79.2253 255.984 72.33 285.16 72.33V49.83C252.256 49.83 221.712 57.6546 193.736 73.3484L204.744 92.9716ZM285.16 72.33C318.727 72.33 348.106 80.6158 373.659 96.9575L385.781 78.0024C356.294 59.1442 322.633 49.83 285.16 49.83V72.33ZM373.787 97.0384C399.455 112.97 418.078 135.638 429.719 165.488L450.681 157.312C437.362 123.162 415.665 96.5498 385.653 77.9215L373.787 97.0384ZM440.2 150.15H374.44V172.65H440.2V150.15ZM384.539 156.442C375.014 137.04 361.519 122.114 343.955 112.235L332.925 131.845C346.081 139.246 356.586 150.56 364.341 166.358L384.539 156.442ZM343.955 112.235C326.682 102.518 306.97 97.83 285.16 97.83V120.33C303.67 120.33 319.478 124.282 332.925 131.845L343.955 112.235ZM285.16 97.83C261.332 97.83 239.683 103.202 220.519 114.203L231.721 133.717C247.117 124.878 264.828 120.33 285.16 120.33V97.83ZM220.519 114.203C201.305 125.234 186.254 141.066 175.398 161.377L195.242 171.983C204.226 155.174 216.375 142.526 231.721 133.717L220.519 114.203ZM175.328 161.511C164.765 181.932 159.67 205.363 159.67 231.48H182.17C182.17 208.317 186.675 188.548 195.312 171.848L175.328 161.511ZM159.67 231.48C159.67 257.597 164.765 281.028 175.328 301.449L195.312 291.111C186.675 274.412 182.17 254.643 182.17 231.48H159.67ZM175.398 301.583C186.239 321.866 201.249 337.819 220.385 349.158L231.855 329.802C216.431 320.661 204.241 307.814 195.242 290.977L175.398 301.583ZM220.519 349.237C239.683 360.238 261.332 365.61 285.16 365.61V343.11C264.828 343.11 247.117 338.562 231.721 329.723L220.519 349.237ZM285.16 365.61C306.97 365.61 326.682 360.922 343.955 351.205L332.925 331.595C319.478 339.158 303.67 343.11 285.16 343.11V365.61ZM343.955 351.205C361.519 341.326 375.014 326.4 384.539 306.998L364.341 297.082C356.586 312.88 346.081 324.194 332.925 331.595L343.955 351.205ZM374.44 313.29H440.2V290.79H374.44V313.29ZM429.719 297.952C418.078 327.802 399.455 350.47 373.787 366.402L385.653 385.518C415.665 366.89 437.362 340.278 450.681 306.128L429.719 297.952ZM373.738 366.432C348.176 382.483 318.768 390.63 285.16 390.63V413.13C322.592 413.13 356.225 403.997 385.702 385.488L373.738 366.432ZM285.16 390.63C255.598 390.63 228.855 383.863 204.703 370.446L193.777 390.114C221.465 405.497 252.002 413.13 285.16 413.13V390.63ZM204.796 370.497C180.598 356.756 161.371 337.839 146.998 313.585L127.642 325.055C143.989 352.641 166.042 374.364 193.684 390.063L204.796 370.497ZM147.051 313.674C133.093 289.62 126.01 262.319 126.01 231.48H103.51C103.51 265.921 111.467 297.18 127.589 324.966L147.051 313.674Z" fill="#3D405B" mask="url(#path-2-outside-1_19_15)"/>
<mask id="path-4-outside-2_19_15" maskUnits="userSpaceOnUse" x="181" y="173" width="298" height="358" fill="black">
<rect fill="white" x="181" y="173" width="298" height="358"/>
<path d="M467.08 519H412.36L247.72 269.88V519H193V184.92H247.72L412.36 433.56V184.92H467.08V519Z"/>
</mask>
<path d="M467.08 519H412.36L247.72 269.88V519H193V184.92H247.72L412.36 433.56V184.92H467.08V519Z" fill="#E07A5F"/>
<path d="M467.08 519V530.25H478.33V519H467.08ZM412.36 519L402.974 525.203L406.31 530.25H412.36V519ZM247.72 269.88L257.106 263.677L236.47 232.453V269.88H247.72ZM247.72 519V530.25H258.97V519H247.72ZM193 519H181.75V530.25H193V519ZM193 184.92V173.67H181.75V184.92H193ZM247.72 184.92L257.1 178.709L253.763 173.67H247.72V184.92ZM412.36 433.56L402.98 439.771L423.61 470.927V433.56H412.36ZM412.36 184.92V173.67H401.11V184.92H412.36ZM467.08 184.92H478.33V173.67H467.08V184.92ZM467.08 507.75H412.36V530.25H467.08V507.75ZM421.746 512.797L257.106 263.677L238.334 276.083L402.974 525.203L421.746 512.797ZM236.47 269.88V519H258.97V269.88H236.47ZM247.72 507.75H193V530.25H247.72V507.75ZM204.25 519V184.92H181.75V519H204.25ZM193 196.17H247.72V173.67H193V196.17ZM238.34 191.131L402.98 439.771L421.74 427.349L257.1 178.709L238.34 191.131ZM423.61 433.56V184.92H401.11V433.56H423.61ZM412.36 196.17H467.08V173.67H412.36V196.17ZM455.83 184.92V519H478.33V184.92H455.83Z" fill="#3D405B" mask="url(#path-4-outside-2_19_15)"/>
</svg>
