<svg width="160" height="160" viewBox="0 0 160 160" fill="none" xmlns="http://www.w3.org/2000/svg">
<g clip-path="url(#clip0_2_2)">
<rect width="160" height="160" rx="80" fill="#3D405B"/>
<path d="M100.776 24.288C102.227 25.056 103.037 26.208 103.208 27.744C103.464 29.28 103.08 30.688 102.056 31.968C101.288 33.0773 100.307 33.6747 99.112 33.76C97.9173 33.8453 96.7227 33.5893 95.528 32.992C92.712 31.2853 89.6827 29.9627 86.44 29.024C83.1973 28 79.784 27.488 76.2 27.488C71.1653 27.488 66.5573 28.384 62.376 30.176C58.1947 31.8827 54.568 34.3147 51.496 37.472C48.424 40.6293 46.0347 44.384 44.328 48.736C42.6213 53.088 41.768 57.9093 41.768 63.2C41.768 68.832 42.664 73.8667 44.456 78.304C46.248 82.7413 48.68 86.5387 51.752 89.696C54.9093 92.768 58.536 95.1147 62.632 96.736C66.8133 98.3573 71.336 99.168 76.2 99.168C79.6987 99.168 83.0693 98.6987 86.312 97.76C89.5547 96.8213 92.6267 95.456 95.528 93.664C96.7227 93.0667 97.9173 92.8533 99.112 93.024C100.307 93.1947 101.331 93.792 102.184 94.816C103.208 96.1813 103.592 97.632 103.336 99.168C103.08 100.619 102.269 101.685 100.904 102.368C98.7707 103.648 96.3387 104.843 93.608 105.952C90.8773 106.976 88.0187 107.787 85.032 108.384C82.1307 108.981 79.1867 109.28 76.2 109.28C70.056 109.28 64.2533 108.213 58.792 106.08C53.3307 103.947 48.5093 100.875 44.328 96.864C40.1467 92.8533 36.8187 88.032 34.344 82.4C31.9547 76.6827 30.76 70.2827 30.76 63.2C30.76 56.544 31.912 50.4427 34.216 44.896C36.52 39.3493 39.72 34.528 43.816 30.432C47.9973 26.336 52.8187 23.136 58.28 20.832C63.8267 18.528 69.8 17.376 76.2 17.376C80.6373 17.376 84.9467 17.9733 89.128 19.168C93.3947 20.3627 97.2773 22.0693 100.776 24.288Z" fill="#F2CC8F"/>
<path d="M118.568 50.4C120.019 50.4 121.171 50.8693 122.024 51.808C122.877 52.6613 123.304 53.7707 123.304 55.136V134.624C123.304 136.245 122.792 137.568 121.768 138.592C120.744 139.531 119.507 140 118.056 140C117.288 140 116.52 139.872 115.752 139.616C114.984 139.275 114.387 138.848 113.96 138.336L59.176 65.888L61.736 64.352V135.264C61.736 136.629 61.2667 137.781 60.328 138.72C59.4747 139.573 58.3227 140 56.872 140C55.5067 140 54.3973 139.573 53.544 138.72C52.6907 137.781 52.264 136.629 52.264 135.264V55.52C52.264 53.984 52.7333 52.7467 53.672 51.808C54.696 50.8693 55.8907 50.4 57.256 50.4C58.024 50.4 58.792 50.5707 59.56 50.912C60.4133 51.168 61.0533 51.5947 61.48 52.192L115.496 123.616L113.832 125.664V55.136C113.832 53.7707 114.259 52.6613 115.112 51.808C116.051 50.8693 117.203 50.4 118.568 50.4Z" fill="#F4F1DE"/>
</g>
<defs>
<clipPath id="clip0_2_2">
<rect width="160" height="160" rx="80" fill="white"/>
</clipPath>
</defs>
</svg>
