<svg width="160" height="160" viewBox="0 0 160 160" fill="none" xmlns="http://www.w3.org/2000/svg">
<g clip-path="url(#clip0_2_2)">
<rect width="160" height="160" rx="80" fill="#3D405B"/>
<mask id="path-2-outside-1_2_2" maskUnits="userSpaceOnUse" x="27" y="14" width="80" height="99" fill="black">
<rect fill="white" x="27" y="14" width="80" height="99"/>
<path d="M100.776 24.288C102.227 25.056 103.037 26.208 103.208 27.744C103.464 29.28 103.08 30.688 102.056 31.968C101.288 33.0773 100.307 33.6747 99.112 33.76C97.9173 33.8453 96.7227 33.5893 95.528 32.992C92.712 31.2853 89.6827 29.9627 86.44 29.024C83.1973 28 79.784 27.488 76.2 27.488C71.1653 27.488 66.5573 28.384 62.376 30.176C58.1947 31.8827 54.568 34.3147 51.496 37.472C48.424 40.6293 46.0347 44.384 44.328 48.736C42.6213 53.088 41.768 57.9093 41.768 63.2C41.768 68.832 42.664 73.8667 44.456 78.304C46.248 82.7413 48.68 86.5387 51.752 89.696C54.9093 92.768 58.536 95.1147 62.632 96.736C66.8133 98.3573 71.336 99.168 76.2 99.168C79.6987 99.168 83.0693 98.6987 86.312 97.76C89.5547 96.8213 92.6267 95.456 95.528 93.664C96.7227 93.0667 97.9173 92.8533 99.112 93.024C100.307 93.1947 101.331 93.792 102.184 94.816C103.208 96.1813 103.592 97.632 103.336 99.168C103.08 100.619 102.269 101.685 100.904 102.368C98.7707 103.648 96.3387 104.843 93.608 105.952C90.8773 106.976 88.0187 107.787 85.032 108.384C82.1307 108.981 79.1867 109.28 76.2 109.28C70.056 109.28 64.2533 108.213 58.792 106.08C53.3307 103.947 48.5093 100.875 44.328 96.864C40.1467 92.8533 36.8187 88.032 34.344 82.4C31.9547 76.6827 30.76 70.2827 30.76 63.2C30.76 56.544 31.912 50.4427 34.216 44.896C36.52 39.3493 39.72 34.528 43.816 30.432C47.9973 26.336 52.8187 23.136 58.28 20.832C63.8267 18.528 69.8 17.376 76.2 17.376C80.6373 17.376 84.9467 17.9733 89.128 19.168C93.3947 20.3627 97.2773 22.0693 100.776 24.288Z"/>
</mask>
<path d="M100.776 24.288C102.227 25.056 103.037 26.208 103.208 27.744C103.464 29.28 103.08 30.688 102.056 31.968C101.288 33.0773 100.307 33.6747 99.112 33.76C97.9173 33.8453 96.7227 33.5893 95.528 32.992C92.712 31.2853 89.6827 29.9627 86.44 29.024C83.1973 28 79.784 27.488 76.2 27.488C71.1653 27.488 66.5573 28.384 62.376 30.176C58.1947 31.8827 54.568 34.3147 51.496 37.472C48.424 40.6293 46.0347 44.384 44.328 48.736C42.6213 53.088 41.768 57.9093 41.768 63.2C41.768 68.832 42.664 73.8667 44.456 78.304C46.248 82.7413 48.68 86.5387 51.752 89.696C54.9093 92.768 58.536 95.1147 62.632 96.736C66.8133 98.3573 71.336 99.168 76.2 99.168C79.6987 99.168 83.0693 98.6987 86.312 97.76C89.5547 96.8213 92.6267 95.456 95.528 93.664C96.7227 93.0667 97.9173 92.8533 99.112 93.024C100.307 93.1947 101.331 93.792 102.184 94.816C103.208 96.1813 103.592 97.632 103.336 99.168C103.08 100.619 102.269 101.685 100.904 102.368C98.7707 103.648 96.3387 104.843 93.608 105.952C90.8773 106.976 88.0187 107.787 85.032 108.384C82.1307 108.981 79.1867 109.28 76.2 109.28C70.056 109.28 64.2533 108.213 58.792 106.08C53.3307 103.947 48.5093 100.875 44.328 96.864C40.1467 92.8533 36.8187 88.032 34.344 82.4C31.9547 76.6827 30.76 70.2827 30.76 63.2C30.76 56.544 31.912 50.4427 34.216 44.896C36.52 39.3493 39.72 34.528 43.816 30.432C47.9973 26.336 52.8187 23.136 58.28 20.832C63.8267 18.528 69.8 17.376 76.2 17.376C80.6373 17.376 84.9467 17.9733 89.128 19.168C93.3947 20.3627 97.2773 22.0693 100.776 24.288Z" fill="#F2CC8F"/>
<path d="M100.776 24.288L99.1694 26.8215L99.2686 26.8844L99.3723 26.9394L100.776 24.288ZM103.208 27.744L100.226 28.0753L100.235 28.1565L100.249 28.2372L103.208 27.744ZM102.056 31.968L99.7134 30.0939L99.6485 30.175L99.5894 30.2604L102.056 31.968ZM99.112 33.76L99.3257 36.7524V36.7524L99.112 33.76ZM95.528 32.992L93.9731 35.5576L94.0773 35.6208L94.1864 35.6753L95.528 32.992ZM86.44 29.024L85.5366 31.8847L85.5711 31.8956L85.6058 31.9057L86.44 29.024ZM62.376 30.176L63.5097 32.9535L63.5338 32.9437L63.5578 32.9334L62.376 30.176ZM51.496 37.472L53.6462 39.5641L51.496 37.472ZM44.328 48.736L41.5351 47.6407L44.328 48.736ZM44.456 78.304L41.6743 79.4274L44.456 78.304ZM51.752 89.696L49.6018 91.7881L49.6305 91.8175L49.6599 91.8462L51.752 89.696ZM62.632 96.736L61.5279 99.5254L61.5376 99.5293L61.5474 99.5331L62.632 96.736ZM86.312 97.76L87.1462 100.642L86.312 97.76ZM95.528 93.664L94.1864 90.9807L94.066 91.0409L93.9515 91.1116L95.528 93.664ZM99.112 93.024L99.5363 90.0542L99.112 93.024ZM102.184 94.816L104.584 93.016L104.538 92.9545L104.489 92.8954L102.184 94.816ZM103.336 99.168L106.29 99.6894L106.293 99.6753L106.295 99.6612L103.336 99.168ZM100.904 102.368L99.5624 99.6847L99.4593 99.7362L99.3605 99.7955L100.904 102.368ZM93.608 105.952L94.6614 108.761L94.6995 108.747L94.7371 108.731L93.608 105.952ZM85.032 108.384L84.4437 105.442L84.4353 105.444L84.427 105.446L85.032 108.384ZM58.792 106.08L57.7004 108.874L58.792 106.08ZM44.328 96.864L46.4047 94.699L44.328 96.864ZM34.344 82.4L31.576 83.5568L31.5865 83.5819L31.5974 83.6068L34.344 82.4ZM34.216 44.896L31.4455 43.7452L34.216 44.896ZM43.816 30.432L41.7167 28.2889L41.7056 28.2997L41.6947 28.3107L43.816 30.432ZM58.28 20.832L57.1292 18.0615L57.1215 18.0647L57.1139 18.0679L58.28 20.832ZM89.128 19.168L88.3038 22.0526L88.3115 22.0548L88.3191 22.0569L89.128 19.168ZM99.3723 26.9394C100.01 27.277 100.173 27.5967 100.226 28.0753L106.19 27.4127C105.901 24.8193 104.443 22.835 102.18 21.6366L99.3723 26.9394ZM100.249 28.2372C100.357 28.8835 100.237 29.4399 99.7134 30.0939L104.399 33.8421C105.923 31.9361 106.571 29.6765 106.167 27.2508L100.249 28.2372ZM99.5894 30.2604C99.2648 30.7293 99.0637 30.7558 98.8983 30.7676L99.3257 36.7524C101.55 36.5935 103.311 35.4254 104.523 33.6756L99.5894 30.2604ZM98.8983 30.7676C98.3004 30.8103 97.6398 30.6938 96.8696 30.3087L94.1864 35.6753C95.8055 36.4849 97.5342 36.8803 99.3257 36.7524L98.8983 30.7676ZM97.0829 30.4264C94.0359 28.5798 90.7635 27.1524 87.2742 26.1423L85.6058 31.9057C88.6018 32.773 91.3881 33.9909 93.9731 35.5576L97.0829 30.4264ZM87.3434 26.1632C83.7931 25.0421 80.0739 24.488 76.2 24.488V30.488C79.4941 30.488 82.6016 30.9579 85.5366 31.8847L87.3434 26.1632ZM76.2 24.488C70.8026 24.488 65.787 25.4502 61.1942 27.4186L63.5578 32.9334C67.3276 31.3178 71.5281 30.488 76.2 30.488V24.488ZM61.2423 27.3985C56.6885 29.2572 52.7132 31.919 49.3458 35.3799L53.6462 39.5641C56.4228 36.7103 59.7009 34.5082 63.5097 32.9535L61.2423 27.3985ZM49.3458 35.3799C45.9786 38.8407 43.3785 42.9401 41.5351 47.6407L47.1209 49.8313C48.6909 45.8279 50.8694 42.418 53.6462 39.5641L49.3458 35.3799ZM41.5351 47.6407C39.6747 52.3846 38.768 57.5836 38.768 63.2H44.768C44.768 58.2351 45.5679 53.7914 47.1209 49.8313L41.5351 47.6407ZM38.768 63.2C38.768 69.1501 39.715 74.5758 41.6743 79.4274L47.2377 77.1806C45.613 73.1575 44.768 68.5139 44.768 63.2H38.768ZM41.6743 79.4274C43.5993 84.1942 46.2359 88.3286 49.6018 91.7881L53.9022 87.6039C51.1241 84.7487 48.8967 81.2885 47.2377 77.1806L41.6743 79.4274ZM49.6599 91.8462C53.1011 95.1944 57.0636 97.7583 61.5279 99.5254L63.7361 93.9466C60.0084 92.471 56.7175 90.3416 53.8441 87.5458L49.6599 91.8462ZM61.5474 99.5331C66.1028 101.299 70.9966 102.168 76.2 102.168V96.168C71.6754 96.168 67.5238 95.4152 63.7166 93.9389L61.5474 99.5331ZM76.2 102.168C79.9706 102.168 83.6227 101.662 87.1462 100.642L85.4778 94.8783C82.516 95.7357 79.4268 96.168 76.2 96.168V102.168ZM87.1462 100.642C90.6527 99.6266 93.9742 98.1498 97.1045 96.2164L93.9515 91.1116C91.2792 92.7622 88.4566 94.016 85.4778 94.8783L87.1462 100.642ZM96.8696 96.3473C97.5794 95.9924 98.1612 95.9186 98.6877 95.9939L99.5363 90.0542C97.6735 89.788 95.866 90.1409 94.1864 90.9807L96.8696 96.3473ZM98.6877 95.9939C99.0684 96.0482 99.4477 96.2185 99.8793 96.7365L104.489 92.8954C103.214 91.3655 101.545 90.3411 99.5363 90.0542L98.6877 95.9939ZM99.784 96.616C100.368 97.3952 100.484 98.0297 100.377 98.6748L106.295 99.6612C106.7 97.2343 106.048 94.9675 104.584 93.016L99.784 96.616ZM100.382 98.6466C100.298 99.1229 100.114 99.4087 99.5624 99.6847L102.246 105.051C104.424 103.962 105.862 102.114 106.29 99.6894L100.382 98.6466ZM99.3605 99.7955C97.3813 100.983 95.0917 102.111 92.4789 103.173L94.7371 108.731C97.5857 107.574 100.16 106.313 102.447 104.94L99.3605 99.7955ZM92.5546 103.143C89.9817 104.108 87.279 104.875 84.4437 105.442L85.6203 111.326C88.7584 110.698 91.773 109.844 94.6614 108.761L92.5546 103.143ZM84.427 105.446C81.7264 106.002 78.9851 106.28 76.2 106.28V112.28C79.3882 112.28 82.5349 111.961 85.637 111.322L84.427 105.446ZM76.2 106.28C70.4113 106.28 64.9805 105.277 59.8836 103.286L57.7004 108.874C63.5262 111.15 69.7007 112.28 76.2 112.28V106.28ZM59.8836 103.286C54.7842 101.294 50.2986 98.434 46.4047 94.699L42.2513 99.029C46.7201 103.315 51.8772 106.6 57.7004 108.874L59.8836 103.286ZM46.4047 94.699C42.5246 90.9772 39.4168 86.4875 37.0906 81.1932L31.5974 83.6068C34.2205 89.5765 37.7688 94.7294 42.2513 99.029L46.4047 94.699ZM37.112 81.2432C34.8962 75.941 33.76 69.9419 33.76 63.2H27.76C27.76 70.6234 29.0132 77.4243 31.576 83.5568L37.112 81.2432ZM33.76 63.2C33.76 56.8962 34.8496 51.1912 36.9865 46.0468L31.4455 43.7452C28.9744 49.6942 27.76 56.1918 27.76 63.2H33.76ZM36.9865 46.0468C39.1454 40.8494 42.1294 36.3612 45.9373 32.5533L41.6947 28.3107C37.3106 32.6948 33.8946 37.8493 31.4455 43.7452L36.9865 46.0468ZM45.9153 32.5751C49.8239 28.7463 54.3276 25.7555 59.4461 23.5961L57.1139 18.0679C51.3097 20.5165 46.1708 23.9257 41.7167 28.2889L45.9153 32.5751ZM59.4308 23.6025C64.5893 21.4598 70.1687 20.376 76.2 20.376V14.376C69.4313 14.376 63.0641 15.5962 57.1292 18.0615L59.4308 23.6025ZM76.2 20.376C80.3643 20.376 84.396 20.936 88.3038 22.0526L89.9522 16.2834C85.4973 15.0106 80.9103 14.376 76.2 14.376V20.376ZM88.3191 22.0569C92.3235 23.1781 95.9344 24.7701 99.1694 26.8215L102.383 21.7545C98.6202 19.3686 94.4658 17.5472 89.9369 16.2791L88.3191 22.0569Z" fill="#3D405B" mask="url(#path-2-outside-1_2_2)"/>
<mask id="path-4-outside-2_2_2" maskUnits="userSpaceOnUse" x="49" y="47" width="78" height="96" fill="black">
<rect fill="white" x="49" y="47" width="78" height="96"/>
<path d="M118.568 50.4C120.019 50.4 121.171 50.8693 122.024 51.808C122.877 52.6613 123.304 53.7707 123.304 55.136V134.624C123.304 136.245 122.792 137.568 121.768 138.592C120.744 139.531 119.507 140 118.056 140C117.288 140 116.52 139.872 115.752 139.616C114.984 139.275 114.387 138.848 113.96 138.336L59.176 65.888L61.736 64.352V135.264C61.736 136.629 61.2667 137.781 60.328 138.72C59.4747 139.573 58.3227 140 56.872 140C55.5067 140 54.3973 139.573 53.544 138.72C52.6907 137.781 52.264 136.629 52.264 135.264V55.52C52.264 53.984 52.7333 52.7467 53.672 51.808C54.696 50.8693 55.8907 50.4 57.256 50.4C58.024 50.4 58.792 50.5707 59.56 50.912C60.4133 51.168 61.0533 51.5947 61.48 52.192L115.496 123.616L113.832 125.664V55.136C113.832 53.7707 114.259 52.6613 115.112 51.808C116.051 50.8693 117.203 50.4 118.568 50.4Z"/>
</mask>
<path d="M118.568 50.4C120.019 50.4 121.171 50.8693 122.024 51.808C122.877 52.6613 123.304 53.7707 123.304 55.136V134.624C123.304 136.245 122.792 137.568 121.768 138.592C120.744 139.531 119.507 140 118.056 140C117.288 140 116.52 139.872 115.752 139.616C114.984 139.275 114.387 138.848 113.96 138.336L59.176 65.888L61.736 64.352V135.264C61.736 136.629 61.2667 137.781 60.328 138.72C59.4747 139.573 58.3227 140 56.872 140C55.5067 140 54.3973 139.573 53.544 138.72C52.6907 137.781 52.264 136.629 52.264 135.264V55.52C52.264 53.984 52.7333 52.7467 53.672 51.808C54.696 50.8693 55.8907 50.4 57.256 50.4C58.024 50.4 58.792 50.5707 59.56 50.912C60.4133 51.168 61.0533 51.5947 61.48 52.192L115.496 123.616L113.832 125.664V55.136C113.832 53.7707 114.259 52.6613 115.112 51.808C116.051 50.8693 117.203 50.4 118.568 50.4Z" fill="#E07A5F"/>
<path d="M122.024 51.808L119.804 53.826L119.852 53.8788L119.903 53.9293L122.024 51.808ZM121.768 138.592L123.795 140.803L123.843 140.759L123.889 140.713L121.768 138.592ZM115.752 139.616L114.534 142.357L114.666 142.416L114.803 142.462L115.752 139.616ZM113.96 138.336L111.567 140.145L111.61 140.202L111.655 140.257L113.96 138.336ZM59.176 65.888L57.6325 63.3155L54.7688 65.0337L56.7831 67.6974L59.176 65.888ZM61.736 64.352H64.736V59.0534L60.1925 61.7795L61.736 64.352ZM60.328 138.72L62.4493 140.841L60.328 138.72ZM53.544 138.72L51.3242 140.738L51.3722 140.791L51.4227 140.841L53.544 138.72ZM53.672 51.808L51.6448 49.5965L51.5968 49.6406L51.5507 49.6867L53.672 51.808ZM59.56 50.912L58.3416 53.6534L58.5156 53.7308L58.698 53.7855L59.56 50.912ZM61.48 52.192L59.0388 53.9357L59.0626 53.969L59.0872 54.0016L61.48 52.192ZM115.496 123.616L117.824 125.508L119.308 123.682L117.889 121.806L115.496 123.616ZM113.832 125.664H110.832V134.114L116.16 127.556L113.832 125.664ZM115.112 51.808L117.233 53.9293L117.233 53.9293L115.112 51.808ZM118.568 53.4C119.307 53.4 119.604 53.6054 119.804 53.826L124.244 49.79C122.738 48.1333 120.73 47.4 118.568 47.4V53.4ZM119.903 53.9293C120.118 54.1443 120.304 54.4524 120.304 55.136H126.304C126.304 53.0889 125.637 51.1783 124.145 49.6867L119.903 53.9293ZM120.304 55.136V134.624H126.304V55.136H120.304ZM120.304 134.624C120.304 135.554 120.039 136.079 119.647 136.471L123.889 140.713C125.545 139.057 126.304 136.937 126.304 134.624H120.304ZM119.741 136.381C119.297 136.788 118.793 137 118.056 137V143C120.221 143 122.192 142.273 123.795 140.803L119.741 136.381ZM118.056 137C117.628 137 117.179 136.93 116.701 136.77L114.803 142.462C115.861 142.814 116.948 143 118.056 143V137ZM116.97 136.875C116.516 136.673 116.33 136.494 116.265 136.415L111.655 140.257C112.443 141.202 113.452 141.877 114.534 142.357L116.97 136.875ZM116.353 136.527L61.5689 64.0785L56.7831 67.6974L111.567 140.145L116.353 136.527ZM60.7195 68.4605L63.2795 66.9245L60.1925 61.7795L57.6325 63.3155L60.7195 68.4605ZM58.736 64.352V135.264H64.736V64.352H58.736ZM58.736 135.264C58.736 135.859 58.565 136.24 58.2067 136.599L62.4493 140.841C63.9683 139.322 64.736 137.4 64.736 135.264H58.736ZM58.2067 136.599C58.0269 136.778 57.699 137 56.872 137V143C58.9463 143 60.9224 142.368 62.4493 140.841L58.2067 136.599ZM56.872 137C56.1884 137 55.8803 136.814 55.6653 136.599L51.4227 140.841C52.9144 142.333 54.8249 143 56.872 143V137ZM55.7638 136.702C55.4527 136.36 55.264 135.945 55.264 135.264H49.264C49.264 137.314 49.9286 139.203 51.3242 140.738L55.7638 136.702ZM55.264 135.264V55.52H49.264V135.264H55.264ZM55.264 55.52C55.264 54.6444 55.5062 54.2164 55.7933 53.9293L51.5507 49.6867C49.9605 51.2769 49.264 53.3236 49.264 55.52H55.264ZM55.6992 54.0195C56.1806 53.5782 56.6556 53.4 57.256 53.4V47.4C55.1257 47.4 53.2114 48.1605 51.6448 49.5965L55.6992 54.0195ZM57.256 53.4C57.566 53.4 57.9206 53.4663 58.3416 53.6534L60.7784 48.1706C59.6634 47.675 58.482 47.4 57.256 47.4V53.4ZM58.698 53.7855C58.884 53.8413 58.9786 53.8953 59.0159 53.9201C59.0481 53.9416 59.0468 53.9469 59.0388 53.9357L63.9212 50.4483C63.0308 49.2017 61.7724 48.4436 60.4221 48.0385L58.698 53.7855ZM59.0872 54.0016L113.103 125.426L117.889 121.806L63.8728 50.3824L59.0872 54.0016ZM113.168 121.724L111.504 123.772L116.16 127.556L117.824 125.508L113.168 121.724ZM116.832 125.664V55.136H110.832V125.664H116.832ZM116.832 55.136C116.832 54.4524 117.018 54.1443 117.233 53.9293L112.991 49.6867C111.499 51.1783 110.832 53.0889 110.832 55.136H116.832ZM117.233 53.9293C117.592 53.571 117.973 53.4 118.568 53.4V47.4C116.432 47.4 114.51 48.1677 112.991 49.6867L117.233 53.9293Z" fill="#3D405B" mask="url(#path-4-outside-2_2_2)"/>
</g>
<defs>
<clipPath id="clip0_2_2">
<rect width="160" height="160" rx="80" fill="white"/>
</clipPath>
</defs>
</svg>
