<svg width="160" height="160" viewBox="0 0 160 160" fill="none" xmlns="http://www.w3.org/2000/svg">
<g clip-path="url(#clip0_2_2)">
<rect width="160" height="160" rx="80" fill="#3D405B"/>
<mask id="path-2-outside-1_2_2" maskUnits="userSpaceOnUse" x="26" y="15" width="95" height="98" fill="black">
<rect fill="white" x="26" y="15" width="95" height="98"/>
<path d="M29.736 64.328C29.736 55.624 31.7413 47.816 35.752 40.904C39.848 33.992 45.352 28.616 52.264 24.776C59.2613 20.8507 66.8987 18.888 75.176 18.888C84.648 18.888 93.0533 21.2347 100.392 25.928C107.816 30.536 113.192 37.1067 116.52 45.64H98.984C96.68 40.9467 93.48 37.448 89.384 35.144C85.288 32.84 80.552 31.688 75.176 31.688C69.288 31.688 64.04 33.0107 59.432 35.656C54.824 38.3013 51.1973 42.0987 48.552 47.048C45.992 51.9973 44.712 57.7573 44.712 64.328C44.712 70.8987 45.992 76.6587 48.552 81.608C51.1973 86.5573 54.824 90.3973 59.432 93.128C64.04 95.7733 69.288 97.096 75.176 97.096C80.552 97.096 85.288 95.944 89.384 93.64C93.48 91.336 96.68 87.8373 98.984 83.144H116.52C113.192 91.6773 107.816 98.248 100.392 102.856C93.0533 107.464 84.648 109.768 75.176 109.768C66.8133 109.768 59.176 107.848 52.264 104.008C45.352 100.083 39.848 94.664 35.752 87.752C31.7413 80.84 29.736 73.032 29.736 64.328Z"/>
</mask>
<path d="M29.736 64.328C29.736 55.624 31.7413 47.816 35.752 40.904C39.848 33.992 45.352 28.616 52.264 24.776C59.2613 20.8507 66.8987 18.888 75.176 18.888C84.648 18.888 93.0533 21.2347 100.392 25.928C107.816 30.536 113.192 37.1067 116.52 45.64H98.984C96.68 40.9467 93.48 37.448 89.384 35.144C85.288 32.84 80.552 31.688 75.176 31.688C69.288 31.688 64.04 33.0107 59.432 35.656C54.824 38.3013 51.1973 42.0987 48.552 47.048C45.992 51.9973 44.712 57.7573 44.712 64.328C44.712 70.8987 45.992 76.6587 48.552 81.608C51.1973 86.5573 54.824 90.3973 59.432 93.128C64.04 95.7733 69.288 97.096 75.176 97.096C80.552 97.096 85.288 95.944 89.384 93.64C93.48 91.336 96.68 87.8373 98.984 83.144H116.52C113.192 91.6773 107.816 98.248 100.392 102.856C93.0533 107.464 84.648 109.768 75.176 109.768C66.8133 109.768 59.176 107.848 52.264 104.008C45.352 100.083 39.848 94.664 35.752 87.752C31.7413 80.84 29.736 73.032 29.736 64.328Z" fill="#F2CC8F"/>
<path d="M35.752 40.904L33.1711 39.3746L33.1641 39.3864L33.1572 39.3984L35.752 40.904ZM52.264 24.776L53.7209 27.3985L53.7318 27.3924L52.264 24.776ZM100.392 25.928L98.7757 28.4553L98.7927 28.4662L98.8099 28.4769L100.392 25.928ZM116.52 45.64V48.64H120.91L119.315 44.55L116.52 45.64ZM98.984 45.64L96.291 46.962L97.1147 48.64H98.984V45.64ZM89.384 35.144L90.8548 32.5293L89.384 35.144ZM59.432 35.656L60.9256 38.2578H60.9256L59.432 35.656ZM48.552 47.048L45.9062 45.6339L45.8967 45.6517L45.8873 45.6697L48.552 47.048ZM48.552 81.608L45.8873 82.9863L45.8967 83.0043L45.9062 83.0221L48.552 81.608ZM59.432 93.128L57.9026 95.7089L57.9204 95.7194L57.9384 95.7298L59.432 93.128ZM89.384 93.64L90.8548 96.2547L89.384 93.64ZM98.984 83.144V80.144H97.1147L96.291 81.822L98.984 83.144ZM116.52 83.144L119.315 84.234L120.91 80.144H116.52V83.144ZM100.392 102.856L98.8099 100.307L98.8033 100.311L98.7967 100.315L100.392 102.856ZM52.264 104.008L50.7825 106.617L50.7948 106.624L50.8071 106.63L52.264 104.008ZM35.752 87.752L33.1572 89.2576L33.1641 89.2696L33.1711 89.2814L35.752 87.752ZM32.736 64.328C32.736 56.1042 34.6249 48.824 38.3468 42.4096L33.1572 39.3984C28.8577 46.808 26.736 55.1438 26.736 64.328H32.736ZM38.3329 42.4334C42.1623 35.9712 47.2817 30.9758 53.7209 27.3985L50.8071 22.1535C43.4223 26.2561 37.5337 32.0128 33.1711 39.3746L38.3329 42.4334ZM53.7318 27.3924C60.2662 23.7268 67.3957 21.888 75.176 21.888V15.888C66.4016 15.888 58.2565 17.9746 50.7962 22.1596L53.7318 27.3924ZM75.176 21.888C84.1272 21.888 91.9617 24.0975 98.7757 28.4553L102.008 23.4006C94.145 18.3718 85.1688 15.888 75.176 15.888V21.888ZM98.8099 28.4769C105.655 32.7254 110.621 38.7702 113.725 46.73L119.315 44.55C115.763 35.4431 109.977 28.3466 101.974 23.3791L98.8099 28.4769ZM116.52 42.64H98.984V48.64H116.52V42.64ZM101.677 44.318C99.137 39.1439 95.5383 35.1637 90.8548 32.5293L87.9132 37.7587C91.4217 39.7323 94.223 42.7494 96.291 46.962L101.677 44.318ZM90.8548 32.5293C86.2485 29.9382 80.9921 28.688 75.176 28.688V34.688C80.1119 34.688 84.3275 35.7418 87.9132 37.7587L90.8548 32.5293ZM75.176 28.688C68.822 28.688 63.0488 30.1205 57.9384 33.0542L60.9256 38.2578C65.0312 35.9008 69.754 34.688 75.176 34.688V28.688ZM57.9384 33.0542C52.8147 35.9956 48.8011 40.2176 45.9062 45.6339L51.1978 48.4621C53.5936 43.9797 56.8333 40.607 60.9256 38.2578L57.9384 33.0542ZM45.8873 45.6697C43.0707 51.1152 41.712 57.3634 41.712 64.328H47.712C47.712 58.1512 48.9133 52.8795 51.2167 48.4263L45.8873 45.6697ZM41.712 64.328C41.712 71.2926 43.0707 77.5408 45.8873 82.9863L51.2167 80.2297C48.9133 75.7765 47.712 70.5048 47.712 64.328H41.712ZM45.9062 83.0221C48.7971 88.431 52.7998 92.685 57.9026 95.7089L60.9614 90.5471C56.8482 88.1097 53.5975 84.6837 51.1978 80.1939L45.9062 83.0221ZM57.9384 95.7298C63.0488 98.6635 68.822 100.096 75.176 100.096V94.096C69.754 94.096 65.0312 92.8832 60.9256 90.5262L57.9384 95.7298ZM75.176 100.096C80.9921 100.096 86.2485 98.8458 90.8548 96.2547L87.9132 91.0253C84.3275 93.0422 80.1119 94.096 75.176 94.096V100.096ZM90.8548 96.2547C95.5383 93.6203 99.137 89.6401 101.677 84.466L96.291 81.822C94.223 86.0346 91.4217 89.0517 87.9132 91.0253L90.8548 96.2547ZM98.984 86.144H116.52V80.144H98.984V86.144ZM113.725 82.054C110.621 90.0138 105.655 96.0586 98.8099 100.307L101.974 105.405C109.977 100.437 115.763 93.3409 119.315 84.234L113.725 82.054ZM98.7967 100.315C91.9801 104.596 84.1381 106.768 75.176 106.768V112.768C85.1579 112.768 94.1265 110.333 101.987 105.397L98.7967 100.315ZM75.176 106.768C67.2928 106.768 60.1614 104.964 53.7209 101.386L50.8071 106.63C58.1906 110.732 66.3339 112.768 75.176 112.768V106.768ZM53.7455 101.399C47.2928 97.7348 42.1656 92.6903 38.3329 86.2226L33.1711 89.2814C37.5304 96.6376 43.4112 102.431 50.7825 106.617L53.7455 101.399ZM38.3468 86.2464C34.6249 79.832 32.736 72.5518 32.736 64.328H26.736C26.736 73.5122 28.8577 81.848 33.1572 89.2576L38.3468 86.2464Z" fill="#3D405B" mask="url(#path-2-outside-1_2_2)"/>
<mask id="path-4-outside-2_2_2" maskUnits="userSpaceOnUse" x="47" y="48" width="80" height="96" fill="black">
<rect fill="white" x="47" y="48" width="80" height="96"/>
<path d="M123.688 141H109.096L65.192 74.568V141H50.6V51.912H65.192L109.096 118.216V51.912H123.688V141Z"/>
</mask>
<path d="M123.688 141H109.096L65.192 74.568V141H50.6V51.912H65.192L109.096 118.216V51.912H123.688V141Z" fill="#E07A5F"/>
<path d="M123.688 141V144H126.688V141H123.688ZM109.096 141L106.593 142.654L107.483 144H109.096V141ZM65.192 74.568L67.6948 72.9139L62.192 64.5875V74.568H65.192ZM65.192 141V144H68.192V141H65.192ZM50.6 141H47.6V144H50.6V141ZM50.6 51.912V48.912H47.6V51.912H50.6ZM65.192 51.912L67.6933 50.2557L66.8036 48.912H65.192V51.912ZM109.096 118.216L106.595 119.872L112.096 128.18V118.216H109.096ZM109.096 51.912V48.912H106.096V51.912H109.096ZM123.688 51.912H126.688V48.912H123.688V51.912ZM123.688 138H109.096V144H123.688V138ZM111.599 139.346L67.6948 72.9139L62.6892 76.2221L106.593 142.654L111.599 139.346ZM62.192 74.568V141H68.192V74.568H62.192ZM65.192 138H50.6V144H65.192V138ZM53.6 141V51.912H47.6V141H53.6ZM50.6 54.912H65.192V48.912H50.6V54.912ZM62.6907 53.5683L106.595 119.872L111.597 116.56L67.6933 50.2557L62.6907 53.5683ZM112.096 118.216V51.912H106.096V118.216H112.096ZM109.096 54.912H123.688V48.912H109.096V54.912ZM120.688 51.912V141H126.688V51.912H120.688Z" fill="#3D405B" mask="url(#path-4-outside-2_2_2)"/>
</g>
<defs>
<clipPath id="clip0_2_2">
<rect width="160" height="160" rx="80" fill="white"/>
</clipPath>
</defs>
</svg>
